<?xml version="1.0" encoding="utf-8"?>
<!-- Generator: Adobe Illustrator 16.0.0, SVG Export Plug-In . SVG Version: 6.00 Build 0)  -->
<!DOCTYPE svg PUBLIC "-//W3C//DTD SVG 1.0//EN" "http://www.w3.org/TR/2001/REC-SVG-20010904/DTD/svg10.dtd">
<svg version="1.0" xmlns="http://www.w3.org/2000/svg" xmlns:xlink="http://www.w3.org/1999/xlink" x="0px" y="0px" width="1700px"
	 height="1284px" viewBox="0 0 1700 1284" enable-background="new 0 0 1700 1284" xml:space="preserve">
<g id="background">
	<g>
		<g>
			<g>
				<g>
					<rect x="-15.273" y="-68.112" fill-rule="evenodd" clip-rule="evenodd" fill="#EF536C" width="1737.174" height="1443.603"/>
				</g>
			</g>
		</g>
		<polygon opacity="0.1" fill-rule="evenodd" clip-rule="evenodd" fill="#201315" points="1721.9,1089.938 1126.106,327.046 
			658.368,704.983 609.722,948.202 993.82,1375.805 1721.9,1375.49 		"/>
		<path fill-rule="evenodd" clip-rule="evenodd" fill="#CBC2B9" d="M640.586,863.171c19.43-0.368,32.805-2.749,35.071-3.185
			l-15.348-81.03c-3.507,0.622-90.679,15.436-124.543-47.538c-27.65-51.424-38.963-152.922,6.243-194.946
			c45.483-42.286,85.948-28.957,86.346-28.817l28.623-77.352c-32.39-11.975-104.87-15.815-171.116,45.759
			c-58.042,53.96-83.24,181.866-22.728,294.411c26.369,49.049,72.179,80.046,132.475,89.653
			C612.282,862.776,627.752,863.411,640.586,863.171z"/>
		<path fill-rule="evenodd" clip-rule="evenodd" fill="#CBC2B9" d="M577.183,391.826c0.656,35.038,35.422,555.647,35.422,555.647
			s39.215,98.828,256.929,94.7c217.714-4.121,249.476-101.805,249.476-101.805s18.612-528.752,18.039-559.155
			c-2.912-153.21-5.661,17.617-279.599,22.803C583.493,409.207,574.278,238.602,577.183,391.826z"/>
		<path fill-rule="evenodd" clip-rule="evenodd" fill="#B6B0A9" d="M662.911,998.597c37.514,23.397,101.116,45.577,206.622,43.577
			c217.723-4.121,249.483-101.805,249.483-101.805s18.604-528.739,18.031-559.155c-2.771-146.098-5.406,2.437-243.147,21.049
			C843.472,657.392,791.767,805.129,662.911,998.597z"/>
		<path fill-rule="evenodd" clip-rule="evenodd" fill="#F3E8DF" d="M578.804,341.793c1.035,54.77,126.131,96.814,279.421,93.911
			c153.278-2.911,276.702-49.653,275.663-104.422c-1.035-54.75-126.139-96.802-279.416-93.898
			C701.184,240.282,577.765,287.043,578.804,341.793z"/>
		<path fill-rule="evenodd" clip-rule="evenodd" fill="#9C978F" d="M604.93,338.795c0.875,46.246,114.13,81.601,252.961,78.971
			c138.805-2.63,250.635-42.246,249.764-88.492c-0.881-46.245-114.122-81.605-252.94-78.983
			C715.883,252.92,604.048,292.55,604.93,338.795z"/>
		<path fill-rule="evenodd" clip-rule="evenodd" fill="#896641" d="M621.107,367.625c30.524-31.968,126.013-56.638,239.54-58.791
			c107.954-2.041,200.395,16.88,236.456,45.222c-30.87,34.847-126.072,61.568-239.213,63.71
			C749.811,419.807,657.238,398.831,621.107,367.625z"/>
	</g>
</g>
<g id="Vexels">
	<g>
		<g>
			<path fill="#FFFFFF" d="M857.155,1161.443l-1.356-2.936c-0.663-1.412-2.439-2.067-3.93-1.461
				c-1.609,0.554-2.332,2.218-1.667,3.578l1.525,3.305l12.05,26.143c0.114,0.104,0.218,0.304,0.275,0.404
				c0,0.049,0.062,0.049,0.062,0.049c0.056,0.104,0.165,0.201,0.277,0.308c0,0.1,0.053,0.1,0.053,0.146
				c0.16,0.104,0.275,0.157,0.386,0.256c0.055,0,0.055,0,0.055,0c0.167,0.1,0.392,0.252,0.5,0.3c0.055,0,0.055,0,0.055,0
				s0.058,0,0.058,0.055c0.109,0,0.33,0.05,0.445,0.096c0.047,0,0.107,0,0.107,0c0.17,0.05,0.387,0.05,0.56,0.05
				c0.162,0,0.332,0,0.552-0.05c0.053,0,0.105,0,0.105,0c0.165-0.046,0.277-0.096,0.445-0.096c0.06-0.055,0.06-0.055,0.109-0.055
				c0.168-0.048,0.34-0.2,0.445-0.254c0.112-0.046,0.112-0.046,0.112-0.046c0.11-0.099,0.218-0.151,0.328-0.256
				c0.06-0.046,0.06-0.046,0.114-0.146c0.055-0.106,0.218-0.204,0.271-0.308c0.058,0,0.058,0,0.058-0.049
				c0.114-0.101,0.174-0.301,0.227-0.404l0.518-1.108l-3.284-7.111L857.155,1161.443z M974.681,1161.233
				c0.939-1.263,0.725-2.974-0.658-3.835c-1.387-0.958-3.217-0.708-4.267,0.605l-6.316,7.875l3.763,4.601L974.681,1161.233z
				 M881.395,1157.047c-1.492-0.606-3.319,0.049-3.987,1.461l-8.023,17.34l3.291,7.12l10.385-22.343
				C883.667,1159.265,882.952,1157.601,881.395,1157.047z M809.883,1146.389c-1.306-1.305-3.038-2.021-4.877-2.021
				s-3.57,0.716-4.874,2.021l-22.322,22.323c-2.686,2.692-2.686,7.061,0,9.747l22.322,22.324c1.304,1.302,3.035,2.015,4.874,2.015
				s3.571-0.713,4.877-2.008l22.319-22.331c1.304-1.308,2.021-3.031,2.021-4.877c0-1.835-0.718-3.566-2.021-4.87L809.883,1146.389z
				 M828.739,1175.588l-21.731,21.727c-1.073,1.072-2.935,1.072-3.996,0l-21.731-21.727c-1.107-1.102-1.107-2.9-0.007-4.007
				l21.738-21.729c0.014-0.019,0.036-0.038,0.058-0.049v18.008c-0.886,0.3-1.701,0.774-2.383,1.453
				c-1.152,1.155-1.786,2.684-1.786,4.317c0,1.632,0.634,3.175,1.786,4.319c1.152,1.161,2.688,1.794,4.317,1.794
				c1.636,0,3.169-0.631,4.329-1.794c2.375-2.376,2.375-6.255,0-8.644c-0.682-0.678-1.5-1.146-2.387-1.446v-18.008
				c0.019,0.011,0.043,0.03,0.062,0.049l21.731,21.729c0.535,0.532,0.822,1.25,0.822,2.001
				C829.562,1174.339,829.274,1175.045,828.739,1175.588z M964.164,1174.237l-3.719-4.638l-9.356-11.596
				c-0.949-1.313-2.885-1.563-4.219-0.605c-1.383,0.861-1.66,2.572-0.723,3.835l10.533,13.004l-10.533,13.114
				c-0.938,1.206-0.66,2.976,0.723,3.832c0.502,0.351,1.114,0.551,1.774,0.551c0.942,0,1.825-0.454,2.444-1.157l9.356-11.648
				l9.995,12.506c0.576,0.722,1.49,1.095,2.339,1.095c0.632,0,1.37-0.293,1.901-0.718c1.258-0.999,1.354-2.808,0.352-4.059
				L964.164,1174.237z M915.168,1156.502c-8.96,0-16.252,7.922-16.252,17.656c0,9.656,7.292,17.521,16.252,17.521
				c5.501,0,10.573-3.003,13.561-8.036c0.72-1.302,0.359-2.918-0.911-3.883c-0.408-0.262-0.895-0.403-1.385-0.403
				c-0.957,0-1.811,0.512-2.27,1.352c-1.88,3.312-5.326,5.359-8.995,5.359c-5.437,0-9.942-4.322-10.748-10.178h24.175
				c1.512,0,2.691-1.172,2.691-2.674l-0.003-0.356C930.602,1163.534,923.665,1156.502,915.168,1156.502z M904.812,1170.347
				c1.471-4.959,5.535-8.235,10.356-8.235c4.726,0,8.809,3.35,10.182,8.235H904.812z M1053.681,1185.98c-0.057,0-4.166,0-4.226,0
				c-1.564,0-3.387-0.903-3.387-3.434v-28.078c0-1.649-1.347-2.991-3.004-2.991c-1.593,0-2.997,1.4-2.997,2.991v28.078
				c0,5.553,3.688,9.138,9.388,9.138c0.071,0,4.192,0,4.265-0.005c1.478-0.107,2.643-1.344,2.643-2.848
				C1056.362,1187.322,1055.176,1186.068,1053.681,1185.98z M1099.525,1176.711c-1.275-1.869-3.272-3.18-5.54-4.181
				c-2.212-0.962-4.818-1.618-7.646-2.117h-0.112c-2.987-0.507-5.479-1.32-6.922-2.226c-0.72-0.45-1.223-0.902-1.502-1.311
				c-0.275-0.399-0.385-0.808-0.385-1.406c0-1.063,0.607-2.168,2.111-3.177c1.492-1.011,3.71-1.716,6.199-1.716
				c3.38,0,6.092,1.512,8.922,3.224c1.332,0.806,3.104,0.456,3.932-0.755c0.887-1.16,0.5-2.776-0.771-3.577
				c-2.827-1.665-6.769-4.04-12.083-4.04c-3.604,0-6.977,0.959-9.581,2.673c-2.552,1.724-4.438,4.337-4.438,7.368
				c0,1.509,0.444,2.922,1.281,4.129c1.213,1.766,3.045,3.031,5.141,3.932c2.113,0.909,4.556,1.516,7.153,1.971h0.114
				c3.263,0.553,5.982,1.406,7.592,2.365c0.827,0.51,1.327,1.01,1.66,1.52c0.334,0.503,0.497,0.951,0.497,1.608
				c0,1.26-0.718,2.521-2.387,3.634c-1.657,1.106-4.149,1.865-6.917,1.865c-3.937,0.049-8.148-2.069-10.586-3.883
				c-1.222-0.914-3.045-0.759-4.044,0.348c-0.942,1.109-0.777,2.776,0.442,3.682c3.162,2.274,8.196,4.998,14.188,5.044
				c3.93,0,7.531-1.056,10.246-2.869c2.771-1.819,4.762-4.588,4.762-7.82C1100.853,1179.428,1100.36,1177.923,1099.525,1176.711z
				 M1007.684,1156.502c-8.962,0-16.251,7.922-16.251,17.656c0,9.656,7.289,17.521,16.251,17.521c5.509,0,10.569-3.003,13.568-8.036
				c0.715-1.302,0.356-2.918-0.911-3.883c-0.414-0.262-0.895-0.403-1.39-0.403c-0.957,0-1.806,0.512-2.272,1.352
				c-1.873,3.312-5.321,5.359-8.995,5.359c-5.437,0-9.942-4.322-10.751-10.178h24.183c1.507,0,2.69-1.172,2.69-2.674v-0.356
				C1023.12,1163.534,1016.188,1156.502,1007.684,1156.502z M997.327,1170.347c1.469-4.959,5.537-8.235,10.356-8.235
				c4.733,0,8.812,3.35,10.187,8.235H997.327z"/>
		</g>
		<g>
			<path fill="#FFFFFF" d="M611.848,1175.922c0,1.054,0.009,2.002,0.023,2.857c0.021,0.845,0.117,1.688,0.282,2.51h-1.667
				l-0.614-2.188h-0.125c-0.408,0.718-1.004,1.314-1.786,1.788c-0.782,0.473-1.693,0.707-2.743,0.707
				c-2.053,0-3.58-0.643-4.578-1.942c-0.994-1.293-1.492-3.314-1.492-6.072c0-2.627,0.622-4.625,1.868-5.988
				c1.241-1.367,2.951-2.048,5.125-2.048c0.763,0,1.363,0.038,1.806,0.118c0.44,0.084,0.919,0.215,1.433,0.402v-6.409h2.469
				V1175.922z M605.622,1179.441c1.045,0,1.877-0.276,2.494-0.819c0.615-0.544,1.033-1.37,1.263-2.479v-7.641
				c-0.373-0.287-0.789-0.494-1.263-0.617c-0.476-0.125-1.1-0.187-1.88-0.187c-1.421,0-2.525,0.47-3.331,1.406
				c-0.799,0.932-1.201,2.427-1.201,4.478c0,0.847,0.072,1.625,0.206,2.34c0.129,0.727,0.349,1.341,0.66,1.853
				c0.311,0.517,0.712,0.921,1.217,1.22C604.292,1179.292,604.901,1179.441,605.622,1179.441z"/>
			<path fill="#FFFFFF" d="M627.839,1179.995c-0.622,0.494-1.391,0.882-2.325,1.172c-0.94,0.286-1.928,0.43-2.976,0.43
				c-1.17,0-2.188-0.189-3.052-0.572c-0.86-0.378-1.573-0.919-2.126-1.631c-0.555-0.71-0.969-1.557-1.229-2.544
				c-0.272-0.982-0.406-2.09-0.406-3.324c0-2.63,0.588-4.635,1.76-6.013c1.167-1.372,2.844-2.065,5.021-2.065
				c0.698,0,1.395,0.079,2.095,0.236c0.701,0.15,1.325,0.445,1.88,0.879c0.558,0.429,1.008,1.04,1.359,1.83
				c0.349,0.793,0.523,1.835,0.523,3.127c0,0.676-0.063,1.431-0.189,2.249h-9.887c0,0.903,0.088,1.708,0.277,2.405
				c0.182,0.702,0.471,1.288,0.861,1.771c0.392,0.483,0.896,0.856,1.523,1.112c0.629,0.257,1.394,0.385,2.296,0.385
				c0.698,0,1.396-0.127,2.097-0.373c0.699-0.243,1.223-0.535,1.569-0.859L627.839,1179.995z M622.538,1167.608
				c-1.215,0-2.186,0.314-2.915,0.956c-0.728,0.636-1.165,1.724-1.309,3.267h7.644c0-1.565-0.299-2.659-0.896-3.286
				C624.466,1167.92,623.624,1167.608,622.538,1167.608z"/>
			<path fill="#FFFFFF" d="M639.022,1177.035c0-0.617-0.188-1.1-0.553-1.447c-0.373-0.348-0.83-0.64-1.373-0.879
				c-0.545-0.236-1.141-0.463-1.784-0.679c-0.65-0.21-1.246-0.493-1.794-0.829c-0.541-0.341-0.997-0.777-1.368-1.311
				c-0.368-0.535-0.555-1.256-0.555-2.159c0-1.479,0.419-2.558,1.263-3.248c0.842-0.69,2.014-1.036,3.516-1.036
				c1.107,0,2.04,0.099,2.787,0.298c0.748,0.194,1.401,0.425,1.958,0.695l-0.588,2.028c-0.474-0.225-1.046-0.424-1.708-0.596
				c-0.672-0.178-1.383-0.265-2.146-0.265c-0.901,0-1.563,0.151-1.985,0.463c-0.423,0.309-0.631,0.842-0.631,1.602
				c0,0.53,0.184,0.949,0.557,1.247c0.369,0.299,0.823,0.566,1.366,0.804c0.546,0.234,1.141,0.465,1.792,0.693
				c0.646,0.224,1.24,0.522,1.783,0.892c0.548,0.371,1.003,0.838,1.373,1.4c0.373,0.568,0.553,1.308,0.553,2.23
				c0,0.663-0.107,1.277-0.323,1.853c-0.215,0.575-0.548,1.071-0.999,1.479c-0.455,0.411-1.012,0.735-1.68,0.97
				c-0.67,0.234-1.456,0.355-2.355,0.355c-1.177,0-2.172-0.115-2.989-0.338c-0.823-0.228-1.512-0.491-2.064-0.802l0.736-2.096
				c0.477,0.268,1.091,0.515,1.852,0.74c0.758,0.228,1.526,0.34,2.311,0.34c0.882,0,1.612-0.175,2.188-0.526
				C638.732,1178.564,639.022,1177.94,639.022,1177.035z"/>
			<path fill="#FFFFFF" d="M645.214,1161.138c0-0.472,0.158-0.879,0.479-1.221c0.32-0.34,0.727-0.506,1.217-0.506
				c0.496,0,0.914,0.166,1.264,0.506c0.352,0.342,0.521,0.749,0.521,1.221c0,0.47-0.17,0.863-0.521,1.169
				c-0.35,0.309-0.768,0.465-1.264,0.465c-0.49,0-0.896-0.156-1.217-0.465C645.372,1162.001,645.214,1161.607,645.214,1161.138z
				 M645.737,1165.819h2.467v15.405h-2.467V1165.819z"/>
			<path fill="#FFFFFF" d="M665.273,1181.934c0,1.994-0.528,3.465-1.589,4.411c-1.055,0.942-2.621,1.414-4.697,1.414
				c-1.229,0-2.224-0.078-2.975-0.229c-0.746-0.154-1.39-0.355-1.926-0.602l0.648-2.097c0.474,0.188,0.997,0.361,1.571,0.526
				c0.576,0.164,1.327,0.245,2.251,0.245c0.863,0,1.566-0.077,2.109-0.232c0.543-0.15,0.98-0.409,1.309-0.771
				c0.33-0.358,0.555-0.819,0.679-1.387c0.122-0.565,0.185-1.24,0.185-2.019v-1.478h-0.122c-0.411,0.597-0.938,1.052-1.569,1.371
				c-0.641,0.319-1.469,0.479-2.499,0.479c-2.073,0-3.603-0.649-4.575-1.943c-0.977-1.295-1.464-3.309-1.464-6.042
				c0-2.627,0.624-4.625,1.877-5.988c1.256-1.367,3.104-2.048,5.549-2.048c1.172,0,2.175,0.092,3.007,0.273
				c0.83,0.186,1.571,0.404,2.231,0.645V1181.934z M659.079,1179.41c1.047,0,1.87-0.266,2.468-0.788
				c0.596-0.524,1.019-1.341,1.263-2.448v-7.89c-0.822-0.39-1.87-0.586-3.145-0.586c-1.395,0-2.497,0.478-3.296,1.417
				c-0.802,0.945-1.203,2.428-1.203,4.438c0,0.862,0.076,1.654,0.218,2.369c0.144,0.727,0.368,1.341,0.679,1.853
				c0.307,0.517,0.706,0.917,1.203,1.205C657.759,1179.267,658.358,1179.41,659.079,1179.41z"/>
			<path fill="#FFFFFF" d="M679.91,1181.225v-8.777c0-1.604-0.231-2.813-0.693-3.62c-0.462-0.813-1.313-1.219-2.542-1.219
				c-1.091,0-1.99,0.293-2.695,0.88c-0.709,0.583-1.208,1.318-1.495,2.202v10.534h-2.464v-15.405h1.723l0.461,1.879h0.125
				c0.494-0.657,1.157-1.198,1.987-1.619c0.832-0.415,1.825-0.632,2.976-0.632c0.844,0,1.583,0.099,2.215,0.298
				c0.641,0.194,1.169,0.538,1.592,1.031c0.417,0.49,0.737,1.155,0.952,1.987c0.22,0.831,0.323,1.885,0.323,3.158v9.303H679.91z"/>
			<path fill="#FFFFFF" d="M698.121,1179.995c-0.617,0.494-1.39,0.882-2.327,1.172c-0.933,0.286-1.926,0.43-2.973,0.43
				c-1.17,0-2.188-0.189-3.05-0.572c-0.861-0.378-1.571-0.919-2.129-1.631c-0.555-0.71-0.966-1.557-1.229-2.544
				c-0.27-0.982-0.401-2.09-0.401-3.324c0-2.63,0.586-4.635,1.755-6.013c1.173-1.372,2.847-2.065,5.025-2.065
				c0.701,0,1.396,0.079,2.096,0.236c0.695,0.15,1.322,0.445,1.879,0.879c0.551,0.429,1.005,1.04,1.354,1.83
				c0.349,0.793,0.523,1.835,0.523,3.127c0,0.676-0.062,1.431-0.182,2.249h-9.895c0,0.903,0.093,1.708,0.28,2.405
				c0.182,0.702,0.469,1.288,0.86,1.771c0.39,0.483,0.895,0.856,1.523,1.112c0.627,0.257,1.393,0.385,2.296,0.385
				c0.699,0,1.399-0.127,2.098-0.373c0.696-0.243,1.221-0.535,1.569-0.859L698.121,1179.995z M692.821,1167.608
				c-1.213,0-2.182,0.314-2.914,0.956c-0.727,0.636-1.166,1.724-1.308,3.267h7.644c0-1.565-0.301-2.659-0.896-3.286
				C694.749,1167.92,693.907,1167.608,692.821,1167.608z"/>
			<path fill="#FFFFFF" d="M714.358,1175.922c0,1.054,0.01,2.002,0.033,2.857c0.021,0.845,0.112,1.688,0.277,2.51h-1.667
				l-0.614-2.188h-0.125c-0.408,0.718-1.007,1.314-1.786,1.788c-0.78,0.473-1.698,0.707-2.743,0.707
				c-2.05,0-3.578-0.643-4.576-1.942c-0.994-1.293-1.494-3.314-1.494-6.072c0-2.627,0.619-4.625,1.865-5.988
				c1.241-1.367,2.951-2.048,5.133-2.048c0.758,0,1.361,0.038,1.796,0.118c0.447,0.084,0.923,0.215,1.438,0.402v-6.409h2.464
				V1175.922z M708.138,1179.441c1.045,0,1.877-0.276,2.494-0.819c0.615-0.544,1.035-1.37,1.263-2.479v-7.641
				c-0.366-0.287-0.792-0.494-1.263-0.617c-0.471-0.125-1.098-0.187-1.883-0.187c-1.415,0-2.521,0.47-3.324,1.406
				c-0.799,0.932-1.2,2.427-1.2,4.478c0,0.847,0.062,1.625,0.2,2.34c0.13,0.727,0.354,1.341,0.658,1.853
				c0.311,0.517,0.715,0.921,1.223,1.22C706.808,1179.292,707.417,1179.441,708.138,1179.441z"/>
			<path fill="#FFFFFF" d="M727.333,1159.657h2.464v7.674h0.126c0.472-0.597,1.072-1.059,1.799-1.389
				c0.729-0.325,1.528-0.495,2.387-0.495c1.998,0,3.487,0.639,4.49,1.915c0.992,1.271,1.489,3.244,1.489,5.916
				c0,2.69-0.657,4.736-1.971,6.132s-3.161,2.092-5.546,2.092c-1.15,0-2.193-0.122-3.126-0.368
				c-0.933-0.244-1.639-0.512-2.112-0.802V1159.657z M733.681,1167.608c-1.031,0-1.863,0.286-2.497,0.86
				c-0.636,0.573-1.098,1.388-1.387,2.435v7.762c0.39,0.229,0.865,0.402,1.418,0.515c0.555,0.112,1.132,0.167,1.727,0.167
				c1.395,0,2.512-0.493,3.339-1.48c0.838-0.985,1.249-2.524,1.249-4.619c0-0.8-0.069-1.552-0.213-2.252
				c-0.144-0.699-0.368-1.292-0.68-1.786c-0.306-0.494-0.703-0.887-1.184-1.169C734.968,1167.753,734.377,1167.608,733.681,1167.608
				z"/>
			<path fill="#FFFFFF" d="M748.15,1175.804l0.861,2.957h0.155l0.68-2.985l3.001-9.956h2.464l-4.559,13.835
				c-0.352,1.007-0.691,1.984-1.033,2.929s-0.715,1.786-1.124,2.529c-0.411,0.74-0.876,1.327-1.388,1.77
				c-0.514,0.441-1.107,0.663-1.786,0.663c-0.739,0-1.345-0.107-1.818-0.307l0.431-2.126c0.268,0.103,0.521,0.15,0.771,0.15
				c0.576,0,1.129-0.302,1.665-0.906c0.53-0.605,0.976-1.649,1.322-3.132l-6.192-15.405h2.834L748.15,1175.804z"/>
		</g>
	</g>
</g>
<g id="Layer_3">
</g>
</svg>
